<svg width="24" height="30" viewBox="0 0 24 30" fill="none" xmlns="http://www.w3.org/2000/svg">
<path d="M21.8182 11.7857C21.8182 9.22827 20.7838 6.77557 18.9425 4.96718C17.1012 3.1588 14.6039 2.14286 12 2.14286C9.39606 2.14286 6.89876 3.1588 5.0575 4.96718C3.21623 6.77557 2.18182 9.22827 2.18182 11.7857C2.18182 15.7414 5.40436 20.8971 12 27.0729C18.5956 20.8971 21.8182 15.7414 21.8182 11.7857ZM12 30C3.99927 22.8579 0 16.785 0 11.7857C0 8.65995 1.26428 5.66221 3.51472 3.45196C5.76516 1.24171 8.8174 0 12 0C15.1826 0 18.2348 1.24171 20.4853 3.45196C22.7357 5.66221 24 8.65995 24 11.7857C24 16.785 20.0007 22.8579 12 30Z" fill="black"/>
<path d="M12.0004 15C12.9199 15 13.8016 14.6839 14.4517 14.1213C15.1019 13.5587 15.4671 12.7956 15.4671 12C15.4671 11.2044 15.1019 10.4413 14.4517 9.87868C13.8016 9.31607 12.9199 9 12.0004 9C11.081 9 10.1993 9.31607 9.54913 9.87868C8.899 10.4413 8.53377 11.2044 8.53377 12C8.53377 12.7956 8.899 13.5587 9.54913 14.1213C10.1993 14.6839 11.081 15 12.0004 15ZM12.0004 17C10.4681 17 8.99847 16.4732 7.91493 15.5355C6.83138 14.5979 6.22266 13.3261 6.22266 12C6.22266 10.6739 6.83138 9.40215 7.91493 8.46447C8.99847 7.52678 10.4681 7 12.0004 7C13.5328 7 15.0024 7.52678 16.0859 8.46447C17.1695 9.40215 17.7782 10.6739 17.7782 12C17.7782 13.3261 17.1695 14.5979 16.0859 15.5355C15.0024 16.4732 13.5328 17 12.0004 17Z" fill="black"/>
</svg>
