<svg width="31" height="24" viewBox="0 0 31 24" fill="none" xmlns="http://www.w3.org/2000/svg">
<path d="M28.3333 0H1.88889C1.38792 0 0.907478 0.210714 0.553243 0.585786C0.199007 0.960859 0 1.46957 0 2V22C0 22.5304 0.199007 23.0391 0.553243 23.4142C0.907478 23.7893 1.38792 24 1.88889 24H28.3333C28.8343 24 29.3147 23.7893 29.669 23.4142C30.0232 23.0391 30.2222 22.5304 30.2222 22V2C30.2222 1.46957 30.0232 0.960859 29.669 0.585786C29.3147 0.210714 28.8343 0 28.3333 0ZM26.8789 22H3.45667L10.0678 14.76L8.70778 13.37L1.88889 20.84V3.52L13.6283 15.89C13.9822 16.2625 14.461 16.4716 14.96 16.4716C15.459 16.4716 15.9378 16.2625 16.2917 15.89L28.3333 3.21V20.71L21.3822 13.35L20.0506 14.76L26.8789 22ZM3.12611 2H26.8033L14.96 14.47L3.12611 2Z" fill="black"/>
</svg>
