<svg width="28" height="28" viewBox="0 0 28 28" fill="none" xmlns="http://www.w3.org/2000/svg">
<path d="M7.64547 0.237077C5.87747 -0.211723 4.02447 -0.0213231 2.57268 0.791277C1.09367 1.61748 0.0566746 3.08288 0.00567461 5.04298C-0.0725254 8.10638 0.636375 12.217 3.45157 17.0416C6.23107 21.8067 9.29957 24.6627 11.8462 26.3593C13.4544 27.432 15.2309 27.4609 16.749 26.7622C18.245 26.0737 19.4588 24.6984 20.0895 22.9933C20.2464 22.5692 20.3095 22.1161 20.2743 21.6653C20.2391 21.2144 20.1064 20.7766 19.8855 20.3821L18.2637 17.4887C17.7651 16.5982 16.9628 15.9168 16.0033 15.5691C15.0438 15.2213 13.9912 15.2305 13.0379 15.5949L11.9057 16.0284C11.3566 16.2375 10.8517 16.1406 10.5661 15.8584C9.60557 14.9149 8.91878 13.6348 8.60768 12.2544C8.50907 11.8192 8.70967 11.3058 9.18907 10.9437L10.2108 10.1719C11.0368 9.5486 11.607 8.64538 11.8145 7.63164C12.022 6.6179 11.8525 5.56328 11.3379 4.66558L9.68547 1.78408C9.46656 1.40259 9.17315 1.06904 8.82268 0.803268C8.47222 0.537501 8.07188 0.344951 7.64547 0.237077ZM1.70567 5.08888C1.73967 3.77308 2.40608 2.83298 3.40228 2.27538C4.42568 1.70248 5.82307 1.52738 7.22727 1.88438C7.43303 1.93634 7.62622 2.0292 7.79533 2.15742C7.96443 2.28564 8.10599 2.44659 8.21158 2.63068L9.86228 5.51218C10.171 6.05058 10.2728 6.68309 10.1486 7.29117C10.0243 7.89925 9.68257 8.44114 9.18737 8.81528L8.16567 9.58708C7.28167 10.2535 6.66967 11.3959 6.94847 12.6284C7.32587 14.2978 8.16058 15.8805 9.37437 17.0722C10.2618 17.9426 11.5266 17.9936 12.5126 17.6162L13.6448 17.1827C14.2168 16.9637 14.8485 16.958 15.4245 17.1665C16.0004 17.375 16.482 17.7839 16.7813 18.3183L18.4014 21.2134C18.6054 21.5772 18.6394 22.0124 18.4949 22.4034C18.0019 23.7379 17.0754 24.7392 16.0384 25.2169C15.0235 25.6844 13.876 25.6708 12.7897 24.9449C10.459 23.3911 7.57068 20.7272 4.91868 16.1848C2.26498 11.6288 1.63597 7.83098 1.70737 5.08888H1.70567ZM18.1991 0.145277C18.002 0.0357162 17.7696 0.00891227 17.5528 0.0707618C17.336 0.132611 17.1526 0.278048 17.0431 0.475077C16.9335 0.672106 16.9067 0.904589 16.9686 1.12138C17.0304 1.33817 17.1758 1.52152 17.3729 1.63108L18.0257 1.99488C20.065 3.12777 21.7997 4.73757 23.0816 6.68672C24.3635 8.63586 25.1544 10.8664 25.3867 13.1877L25.4411 13.7232C25.4475 13.8378 25.4771 13.9499 25.528 14.0528C25.5789 14.1557 25.6502 14.2472 25.7374 14.3218C25.8247 14.3964 25.9262 14.4525 26.0357 14.4868C26.1452 14.5211 26.2606 14.5329 26.3748 14.5214C26.489 14.5099 26.5998 14.4754 26.7003 14.4199C26.8008 14.3645 26.889 14.2893 26.9597 14.1988C27.0303 14.1083 27.0819 14.0045 27.1114 13.8935C27.1408 13.7825 27.1474 13.6668 27.1309 13.5532L27.0782 13.0194C26.8188 10.4245 25.9349 7.93099 24.502 5.75208C23.0691 3.57317 21.1299 1.77365 18.8502 0.507377L18.1991 0.145277ZM16.2067 4.70128C16.3228 4.50811 16.5109 4.36897 16.7296 4.31446C16.9483 4.25994 17.1797 4.29452 17.3729 4.41058L17.5837 4.53638C18.9559 5.3591 20.1331 6.47 21.0339 7.79229C21.9347 9.11458 22.5376 10.6167 22.801 12.1949L22.8758 12.6488C22.8972 12.7601 22.8961 12.8745 22.8726 12.9854C22.8491 13.0963 22.8036 13.2014 22.7389 13.2944C22.6742 13.3875 22.5916 13.4667 22.4958 13.5273C22.4001 13.588 22.2931 13.6288 22.1813 13.6475C22.0696 13.6663 21.9551 13.6624 21.8449 13.6362C21.7346 13.6101 21.6306 13.5621 21.5392 13.4952C21.4477 13.4283 21.3705 13.3437 21.3122 13.2465C21.2539 13.1494 21.2156 13.0415 21.1996 12.9293L21.1231 12.4754C20.9006 11.1403 20.391 9.86937 19.6293 8.7505C18.8676 7.63164 17.8721 6.69147 16.7116 5.99498L16.5008 5.86748C16.405 5.81012 16.3214 5.73445 16.2549 5.64479C16.1884 5.55513 16.1401 5.45325 16.113 5.34495C16.0858 5.23665 16.0803 5.12407 16.0966 5.01362C16.113 4.90318 16.151 4.79704 16.2084 4.70128H16.2067Z" fill="black"/>
</svg>
